<svg xmlns="http://www.w3.org/2000/svg" width="200" height="300"><circle cx="100.0" cy="70" r="60" fill="#ffdbac" /><circle cx="100.0" cy="50" r="60" fill="none" /><rect x="40" y="20" width="120" height="60" fill="#4b2e1e" rx="30" ry="30" /><rect x="40" y="80" width="120" height="30" fill="#4b2e1e" rx="0" ry="0" /><circle cx="80" cy="80" r="8" fill="#000000" /><circle cx="120" cy="80" r="8" fill="#000000" /><rect x="94" y="110" width="12" height="4" fill="#d36a6a" rx="2" ry="2" /><rect x="70" y="150" width="60" height="50" fill="#5cabff" rx="10" ry="10" /><rect x="50" y="150" width="20" height="10" fill="#ffdbac" rx="5" ry="5" /><rect x="50" y="160" width="20" height="10" fill="#ffdbac" rx="5" ry="5" /><rect x="130" y="150" width="20" height="10" fill="#ffdbac" rx="5" ry="5" /><rect x="130" y="160" width="20" height="10" fill="#ffdbac" rx="5" ry="5" /><rect x="75" y="200" width="50" height="30" fill="#2c3e75" rx="5" ry="5" /><rect x="80" y="230" width="15" height="40" fill="#ffdbac" rx="5" ry="5" /><rect x="105" y="230" width="15" height="40" fill="#ffdbac" rx="5" ry="5" /><rect x="75" y="270" width="25" height="10" fill="#333333" rx="2" ry="2" /><rect x="100" y="270" width="25" height="10" fill="#333333" rx="2" ry="2" /></svg>